<mxfile host="app.diagrams.net" modified="2024-03-26T18:55:27.578Z" agent="Mozilla/5.0 (Windows NT 10.0; Win64; x64) AppleWebKit/537.36 (KHTML, like Gecko) Chrome/109.0.0.0 Safari/537.36" etag="DOD6WREeP6AUYasqaLBe" version="24.0.7" type="google">
  <diagram name="Страница — 1" id="IVTXrIopCO9HeBogjIOx">
    <mxGraphModel grid="1" page="1" gridSize="10" guides="1" tooltips="1" connect="1" arrows="1" fold="1" pageScale="1" pageWidth="827" pageHeight="1169" math="0" shadow="0">
      <root>
        <mxCell id="0" />
        <mxCell id="1" parent="0" />
        <mxCell id="yLS3L7dr6BHDWashYxUx-17" value="" style="ellipse;shape=cloud;whiteSpace=wrap;html=1;align=center;" vertex="1" parent="1">
          <mxGeometry x="865" y="440" width="100" height="60" as="geometry" />
        </mxCell>
        <mxCell id="yLS3L7dr6BHDWashYxUx-37" value="" style="edgeStyle=orthogonalEdgeStyle;rounded=0;orthogonalLoop=1;jettySize=auto;html=1;" edge="1" parent="1" source="yLS3L7dr6BHDWashYxUx-1" target="yLS3L7dr6BHDWashYxUx-35">
          <mxGeometry relative="1" as="geometry" />
        </mxCell>
        <mxCell id="yLS3L7dr6BHDWashYxUx-1" value="Свободные&amp;nbsp;&lt;div&gt;&lt;span style=&quot;background-color: initial;&quot;&gt;машины&lt;/span&gt;&lt;/div&gt;" style="rounded=0;whiteSpace=wrap;html=1;" vertex="1" parent="1">
          <mxGeometry x="295" y="230" width="120" height="60" as="geometry" />
        </mxCell>
        <mxCell id="yLS3L7dr6BHDWashYxUx-2" value="Машины&amp;nbsp;&lt;div&gt;на вызове&lt;/div&gt;" style="rounded=0;whiteSpace=wrap;html=1;" vertex="1" parent="1">
          <mxGeometry x="655" y="230" width="120" height="60" as="geometry" />
        </mxCell>
        <mxCell id="yLS3L7dr6BHDWashYxUx-3" value="Актуальные&lt;div&gt;вызовы&lt;/div&gt;" style="rounded=0;whiteSpace=wrap;html=1;" vertex="1" parent="1">
          <mxGeometry x="335" y="440" width="120" height="60" as="geometry" />
        </mxCell>
        <mxCell id="yLS3L7dr6BHDWashYxUx-75" style="edgeStyle=orthogonalEdgeStyle;rounded=0;orthogonalLoop=1;jettySize=auto;html=1;" edge="1" parent="1" source="yLS3L7dr6BHDWashYxUx-4" target="yLS3L7dr6BHDWashYxUx-55">
          <mxGeometry relative="1" as="geometry" />
        </mxCell>
        <mxCell id="yLS3L7dr6BHDWashYxUx-4" value="Выполненные&lt;div&gt;вызовы&lt;/div&gt;" style="rounded=0;whiteSpace=wrap;html=1;" vertex="1" parent="1">
          <mxGeometry x="615" y="440" width="120" height="60" as="geometry" />
        </mxCell>
        <mxCell id="yLS3L7dr6BHDWashYxUx-5" value="" style="shape=flexArrow;endArrow=classic;html=1;rounded=0;entryX=0;entryY=0.5;entryDx=0;entryDy=0;exitX=1;exitY=0.5;exitDx=0;exitDy=0;" edge="1" parent="1" source="yLS3L7dr6BHDWashYxUx-1" target="yLS3L7dr6BHDWashYxUx-2">
          <mxGeometry width="50" height="50" relative="1" as="geometry">
            <mxPoint x="305" y="380" as="sourcePoint" />
            <mxPoint x="355" y="330" as="targetPoint" />
          </mxGeometry>
        </mxCell>
        <mxCell id="yLS3L7dr6BHDWashYxUx-6" value="" style="shape=flexArrow;endArrow=classic;html=1;rounded=0;exitX=0.5;exitY=0;exitDx=0;exitDy=0;entryX=0.5;entryY=0;entryDx=0;entryDy=0;" edge="1" parent="1" source="yLS3L7dr6BHDWashYxUx-2" target="yLS3L7dr6BHDWashYxUx-1">
          <mxGeometry width="50" height="50" relative="1" as="geometry">
            <mxPoint x="625" y="390" as="sourcePoint" />
            <mxPoint x="675" y="340" as="targetPoint" />
            <Array as="points">
              <mxPoint x="715" y="180" />
              <mxPoint x="355" y="180" />
            </Array>
          </mxGeometry>
        </mxCell>
        <mxCell id="yLS3L7dr6BHDWashYxUx-7" value="" style="verticalLabelPosition=bottom;verticalAlign=top;html=1;shape=mxgraph.basic.acute_triangle;dx=0.5;" vertex="1" parent="1">
          <mxGeometry x="515" y="260" width="40" height="20" as="geometry" />
        </mxCell>
        <mxCell id="yLS3L7dr6BHDWashYxUx-8" value="" style="verticalLabelPosition=bottom;verticalAlign=top;html=1;shape=mxgraph.basic.acute_triangle;dx=0.5;rotation=-180;" vertex="1" parent="1">
          <mxGeometry x="515" y="240" width="40" height="20" as="geometry" />
        </mxCell>
        <mxCell id="yLS3L7dr6BHDWashYxUx-10" value="" style="verticalLabelPosition=bottom;verticalAlign=top;html=1;shape=mxgraph.basic.acute_triangle;dx=0.5;" vertex="1" parent="1">
          <mxGeometry x="515" y="180" width="40" height="20" as="geometry" />
        </mxCell>
        <mxCell id="yLS3L7dr6BHDWashYxUx-11" value="" style="verticalLabelPosition=bottom;verticalAlign=top;html=1;shape=mxgraph.basic.acute_triangle;dx=0.5;rotation=-180;" vertex="1" parent="1">
          <mxGeometry x="515" y="160" width="40" height="20" as="geometry" />
        </mxCell>
        <mxCell id="yLS3L7dr6BHDWashYxUx-12" value="" style="shape=flexArrow;endArrow=classic;html=1;rounded=0;entryX=0;entryY=0.5;entryDx=0;entryDy=0;exitX=1;exitY=0.5;exitDx=0;exitDy=0;" edge="1" parent="1" source="yLS3L7dr6BHDWashYxUx-3" target="yLS3L7dr6BHDWashYxUx-4">
          <mxGeometry width="50" height="50" relative="1" as="geometry">
            <mxPoint x="465" y="470" as="sourcePoint" />
            <mxPoint x="615" y="470" as="targetPoint" />
          </mxGeometry>
        </mxCell>
        <mxCell id="yLS3L7dr6BHDWashYxUx-13" value="" style="verticalLabelPosition=bottom;verticalAlign=top;html=1;shape=mxgraph.basic.acute_triangle;dx=0.5;" vertex="1" parent="1">
          <mxGeometry x="515" y="470" width="40" height="20" as="geometry" />
        </mxCell>
        <mxCell id="yLS3L7dr6BHDWashYxUx-14" value="" style="verticalLabelPosition=bottom;verticalAlign=top;html=1;shape=mxgraph.basic.acute_triangle;dx=0.5;rotation=-180;" vertex="1" parent="1">
          <mxGeometry x="515" y="450" width="40" height="20" as="geometry" />
        </mxCell>
        <mxCell id="yLS3L7dr6BHDWashYxUx-18" value="" style="shape=flexArrow;endArrow=classic;html=1;rounded=0;entryX=0;entryY=0.5;entryDx=0;entryDy=0;" edge="1" parent="1" target="yLS3L7dr6BHDWashYxUx-3">
          <mxGeometry width="50" height="50" relative="1" as="geometry">
            <mxPoint x="185" y="470" as="sourcePoint" />
            <mxPoint x="325" y="470" as="targetPoint" />
          </mxGeometry>
        </mxCell>
        <mxCell id="yLS3L7dr6BHDWashYxUx-19" value="" style="verticalLabelPosition=bottom;verticalAlign=top;html=1;shape=mxgraph.basic.acute_triangle;dx=0.5;" vertex="1" parent="1">
          <mxGeometry x="255" y="470" width="40" height="20" as="geometry" />
        </mxCell>
        <mxCell id="yLS3L7dr6BHDWashYxUx-20" value="" style="verticalLabelPosition=bottom;verticalAlign=top;html=1;shape=mxgraph.basic.acute_triangle;dx=0.5;rotation=-180;" vertex="1" parent="1">
          <mxGeometry x="255" y="450" width="40" height="20" as="geometry" />
        </mxCell>
        <mxCell id="yLS3L7dr6BHDWashYxUx-16" value="" style="ellipse;shape=cloud;whiteSpace=wrap;html=1;align=center;" vertex="1" parent="1">
          <mxGeometry x="105" y="440" width="100" height="60" as="geometry" />
        </mxCell>
        <mxCell id="yLS3L7dr6BHDWashYxUx-21" value="" style="shape=flexArrow;endArrow=classic;html=1;rounded=0;exitX=1;exitY=0.5;exitDx=0;exitDy=0;fillColor=default;" edge="1" parent="1" source="yLS3L7dr6BHDWashYxUx-4">
          <mxGeometry width="50" height="50" relative="1" as="geometry">
            <mxPoint x="745" y="470" as="sourcePoint" />
            <mxPoint x="885" y="470" as="targetPoint" />
          </mxGeometry>
        </mxCell>
        <mxCell id="yLS3L7dr6BHDWashYxUx-22" value="" style="verticalLabelPosition=bottom;verticalAlign=top;html=1;shape=mxgraph.basic.acute_triangle;dx=0.5;" vertex="1" parent="1">
          <mxGeometry x="775" y="470" width="40" height="20" as="geometry" />
        </mxCell>
        <mxCell id="yLS3L7dr6BHDWashYxUx-23" value="" style="verticalLabelPosition=bottom;verticalAlign=top;html=1;shape=mxgraph.basic.acute_triangle;dx=0.5;rotation=-180;" vertex="1" parent="1">
          <mxGeometry x="775" y="450" width="40" height="20" as="geometry" />
        </mxCell>
        <mxCell id="yLS3L7dr6BHDWashYxUx-25" value="Длительность хранения&amp;nbsp;&lt;div&gt;сведений&lt;/div&gt;" style="text;html=1;align=center;verticalAlign=middle;resizable=0;points=[];autosize=1;strokeColor=none;fillColor=none;" vertex="1" parent="1">
          <mxGeometry x="770" y="565" width="160" height="40" as="geometry" />
        </mxCell>
        <mxCell id="yLS3L7dr6BHDWashYxUx-26" style="edgeStyle=orthogonalEdgeStyle;rounded=0;orthogonalLoop=1;jettySize=auto;html=1;entryX=0.5;entryY=1;entryDx=0;entryDy=0;entryPerimeter=0;curved=1;" edge="1" parent="1" source="yLS3L7dr6BHDWashYxUx-25" target="yLS3L7dr6BHDWashYxUx-22">
          <mxGeometry relative="1" as="geometry" />
        </mxCell>
        <mxCell id="yLS3L7dr6BHDWashYxUx-27" value="+" style="text;html=1;align=center;verticalAlign=middle;resizable=0;points=[];autosize=1;strokeColor=none;fillColor=none;" vertex="1" parent="1">
          <mxGeometry x="790" y="488" width="30" height="30" as="geometry" />
        </mxCell>
        <mxCell id="yLS3L7dr6BHDWashYxUx-28" value="" style="curved=1;endArrow=classic;html=1;rounded=0;exitX=0.5;exitY=0;exitDx=0;exitDy=0;entryX=0.5;entryY=1;entryDx=0;entryDy=0;entryPerimeter=0;" edge="1" parent="1" source="yLS3L7dr6BHDWashYxUx-3" target="yLS3L7dr6BHDWashYxUx-7">
          <mxGeometry width="50" height="50" relative="1" as="geometry">
            <mxPoint x="435" y="410" as="sourcePoint" />
            <mxPoint x="485" y="360" as="targetPoint" />
            <Array as="points">
              <mxPoint x="415" y="360" />
              <mxPoint x="495" y="340" />
            </Array>
          </mxGeometry>
        </mxCell>
        <mxCell id="yLS3L7dr6BHDWashYxUx-29" value="+" style="text;html=1;align=center;verticalAlign=middle;resizable=0;points=[];autosize=1;strokeColor=none;fillColor=none;" vertex="1" parent="1">
          <mxGeometry x="520" y="288" width="30" height="30" as="geometry" />
        </mxCell>
        <mxCell id="yLS3L7dr6BHDWashYxUx-30" value="Скорость работы" style="text;html=1;align=center;verticalAlign=middle;resizable=0;points=[];autosize=1;strokeColor=none;fillColor=none;" vertex="1" parent="1">
          <mxGeometry x="735" y="330" width="120" height="30" as="geometry" />
        </mxCell>
        <mxCell id="yLS3L7dr6BHDWashYxUx-31" style="edgeStyle=orthogonalEdgeStyle;rounded=0;orthogonalLoop=1;jettySize=auto;html=1;entryX=0.5;entryY=1;entryDx=0;entryDy=0;entryPerimeter=0;curved=1;" edge="1" parent="1" source="yLS3L7dr6BHDWashYxUx-30" target="yLS3L7dr6BHDWashYxUx-11">
          <mxGeometry relative="1" as="geometry">
            <Array as="points">
              <mxPoint x="815" y="130" />
              <mxPoint x="535" y="130" />
            </Array>
          </mxGeometry>
        </mxCell>
        <mxCell id="yLS3L7dr6BHDWashYxUx-32" value="+" style="text;html=1;align=center;verticalAlign=middle;resizable=0;points=[];autosize=1;strokeColor=none;fillColor=none;" vertex="1" parent="1">
          <mxGeometry x="540" y="138" width="30" height="30" as="geometry" />
        </mxCell>
        <mxCell id="yLS3L7dr6BHDWashYxUx-33" style="edgeStyle=orthogonalEdgeStyle;rounded=0;orthogonalLoop=1;jettySize=auto;html=1;entryX=0.5;entryY=1;entryDx=0;entryDy=0;entryPerimeter=0;curved=1;exitX=0.45;exitY=1.09;exitDx=0;exitDy=0;exitPerimeter=0;" edge="1" parent="1" source="yLS3L7dr6BHDWashYxUx-30" target="yLS3L7dr6BHDWashYxUx-14">
          <mxGeometry relative="1" as="geometry">
            <Array as="points">
              <mxPoint x="789" y="390" />
              <mxPoint x="535" y="390" />
            </Array>
          </mxGeometry>
        </mxCell>
        <mxCell id="yLS3L7dr6BHDWashYxUx-34" value="+" style="text;html=1;align=center;verticalAlign=middle;resizable=0;points=[];autosize=1;strokeColor=none;fillColor=none;" vertex="1" parent="1">
          <mxGeometry x="540" y="420" width="30" height="30" as="geometry" />
        </mxCell>
        <mxCell id="yLS3L7dr6BHDWashYxUx-38" value="" style="edgeStyle=orthogonalEdgeStyle;rounded=0;orthogonalLoop=1;jettySize=auto;html=1;" edge="1" parent="1" source="yLS3L7dr6BHDWashYxUx-35" target="yLS3L7dr6BHDWashYxUx-36">
          <mxGeometry relative="1" as="geometry" />
        </mxCell>
        <mxCell id="yLS3L7dr6BHDWashYxUx-35" value="Скорость реакции&amp;nbsp;&lt;div&gt;на обращения&lt;/div&gt;" style="text;html=1;align=center;verticalAlign=middle;resizable=0;points=[];autosize=1;strokeColor=none;fillColor=none;" vertex="1" parent="1">
          <mxGeometry x="100" y="240" width="130" height="40" as="geometry" />
        </mxCell>
        <mxCell id="yLS3L7dr6BHDWashYxUx-36" value="Доверие к скорой" style="text;html=1;align=center;verticalAlign=middle;resizable=0;points=[];autosize=1;strokeColor=none;fillColor=none;" vertex="1" parent="1">
          <mxGeometry x="105" y="330" width="120" height="30" as="geometry" />
        </mxCell>
        <mxCell id="yLS3L7dr6BHDWashYxUx-39" value="+" style="text;html=1;align=center;verticalAlign=middle;resizable=0;points=[];autosize=1;strokeColor=none;fillColor=none;" vertex="1" parent="1">
          <mxGeometry x="220" y="228" width="30" height="30" as="geometry" />
        </mxCell>
        <mxCell id="yLS3L7dr6BHDWashYxUx-40" value="+" style="text;html=1;align=center;verticalAlign=middle;resizable=0;points=[];autosize=1;strokeColor=none;fillColor=none;" vertex="1" parent="1">
          <mxGeometry x="165" y="310" width="30" height="30" as="geometry" />
        </mxCell>
        <mxCell id="yLS3L7dr6BHDWashYxUx-41" style="edgeStyle=orthogonalEdgeStyle;rounded=0;orthogonalLoop=1;jettySize=auto;html=1;entryX=0.5;entryY=1;entryDx=0;entryDy=0;entryPerimeter=0;curved=1;" edge="1" parent="1" source="yLS3L7dr6BHDWashYxUx-36" target="yLS3L7dr6BHDWashYxUx-20">
          <mxGeometry relative="1" as="geometry" />
        </mxCell>
        <mxCell id="yLS3L7dr6BHDWashYxUx-42" value="+" style="text;html=1;align=center;verticalAlign=middle;resizable=0;points=[];autosize=1;strokeColor=none;fillColor=none;" vertex="1" parent="1">
          <mxGeometry x="275" y="420" width="30" height="30" as="geometry" />
        </mxCell>
        <mxCell id="yLS3L7dr6BHDWashYxUx-43" style="edgeStyle=orthogonalEdgeStyle;rounded=0;orthogonalLoop=1;jettySize=auto;html=1;entryX=0.85;entryY=-0.079;entryDx=0;entryDy=0;entryPerimeter=0;curved=1;" edge="1" parent="1" source="yLS3L7dr6BHDWashYxUx-35" target="yLS3L7dr6BHDWashYxUx-30">
          <mxGeometry relative="1" as="geometry">
            <Array as="points">
              <mxPoint x="165" y="50" />
              <mxPoint x="837" y="50" />
            </Array>
          </mxGeometry>
        </mxCell>
        <mxCell id="yLS3L7dr6BHDWashYxUx-44" value="+" style="text;html=1;align=center;verticalAlign=middle;resizable=0;points=[];autosize=1;strokeColor=none;fillColor=none;" vertex="1" parent="1">
          <mxGeometry x="835" y="300" width="30" height="30" as="geometry" />
        </mxCell>
        <mxCell id="yLS3L7dr6BHDWashYxUx-45" value="Качество работы" style="text;html=1;align=center;verticalAlign=middle;resizable=0;points=[];autosize=1;strokeColor=none;fillColor=none;" vertex="1" parent="1">
          <mxGeometry x="280" y="328" width="120" height="30" as="geometry" />
        </mxCell>
        <mxCell id="yLS3L7dr6BHDWashYxUx-47" style="edgeStyle=orthogonalEdgeStyle;rounded=0;orthogonalLoop=1;jettySize=auto;html=1;entryX=0.575;entryY=1.2;entryDx=0;entryDy=0;entryPerimeter=0;curved=1;exitX=0.5;exitY=0;exitDx=0;exitDy=0;" edge="1" parent="1" source="yLS3L7dr6BHDWashYxUx-4" target="yLS3L7dr6BHDWashYxUx-45">
          <mxGeometry relative="1" as="geometry">
            <mxPoint x="134" y="378" as="sourcePoint" />
          </mxGeometry>
        </mxCell>
        <mxCell id="yLS3L7dr6BHDWashYxUx-48" value="+" style="text;html=1;align=center;verticalAlign=middle;resizable=0;points=[];autosize=1;strokeColor=none;fillColor=none;" vertex="1" parent="1">
          <mxGeometry x="325" y="358" width="30" height="30" as="geometry" />
        </mxCell>
        <mxCell id="yLS3L7dr6BHDWashYxUx-50" style="edgeStyle=orthogonalEdgeStyle;rounded=0;orthogonalLoop=1;jettySize=auto;html=1;entryX=0.884;entryY=-0.079;entryDx=0;entryDy=0;entryPerimeter=0;curved=1;" edge="1" parent="1" target="yLS3L7dr6BHDWashYxUx-36">
          <mxGeometry relative="1" as="geometry">
            <mxPoint x="300" y="330" as="sourcePoint" />
            <Array as="points">
              <mxPoint x="300" y="310" />
              <mxPoint x="211" y="310" />
            </Array>
          </mxGeometry>
        </mxCell>
        <mxCell id="yLS3L7dr6BHDWashYxUx-51" value="+" style="text;html=1;align=center;verticalAlign=middle;resizable=0;points=[];autosize=1;strokeColor=none;fillColor=none;" vertex="1" parent="1">
          <mxGeometry x="220" y="310" width="30" height="30" as="geometry" />
        </mxCell>
        <mxCell id="yLS3L7dr6BHDWashYxUx-53" value="Эпидемиологическая&lt;div&gt;угроза&lt;/div&gt;" style="text;html=1;align=center;verticalAlign=middle;resizable=0;points=[];autosize=1;strokeColor=none;fillColor=none;" vertex="1" parent="1">
          <mxGeometry x="205" y="560" width="140" height="40" as="geometry" />
        </mxCell>
        <mxCell id="yLS3L7dr6BHDWashYxUx-54" value="Естественная убыль&lt;div&gt;населения&lt;/div&gt;" style="text;html=1;align=center;verticalAlign=middle;resizable=0;points=[];autosize=1;strokeColor=none;fillColor=none;" vertex="1" parent="1">
          <mxGeometry x="430" y="565" width="140" height="40" as="geometry" />
        </mxCell>
        <mxCell id="yLS3L7dr6BHDWashYxUx-55" value="Выживаемость&amp;nbsp;&lt;div&gt;больных&lt;/div&gt;" style="text;html=1;align=center;verticalAlign=middle;resizable=0;points=[];autosize=1;strokeColor=none;fillColor=none;" vertex="1" parent="1">
          <mxGeometry x="620" y="565" width="110" height="40" as="geometry" />
        </mxCell>
        <mxCell id="yLS3L7dr6BHDWashYxUx-56" style="edgeStyle=orthogonalEdgeStyle;rounded=0;orthogonalLoop=1;jettySize=auto;html=1;entryX=1.038;entryY=0.594;entryDx=0;entryDy=0;entryPerimeter=0;" edge="1" parent="1" source="yLS3L7dr6BHDWashYxUx-30" target="yLS3L7dr6BHDWashYxUx-45">
          <mxGeometry relative="1" as="geometry" />
        </mxCell>
        <mxCell id="yLS3L7dr6BHDWashYxUx-57" value="+" style="text;html=1;align=center;verticalAlign=middle;resizable=0;points=[];autosize=1;strokeColor=none;fillColor=none;" vertex="1" parent="1">
          <mxGeometry x="405" y="318" width="30" height="30" as="geometry" />
        </mxCell>
        <mxCell id="yLS3L7dr6BHDWashYxUx-59" value="+" style="text;html=1;align=center;verticalAlign=middle;resizable=0;points=[];autosize=1;strokeColor=none;fillColor=none;" vertex="1" parent="1">
          <mxGeometry x="240" y="488" width="30" height="30" as="geometry" />
        </mxCell>
        <mxCell id="yLS3L7dr6BHDWashYxUx-64" style="edgeStyle=orthogonalEdgeStyle;rounded=0;orthogonalLoop=1;jettySize=auto;html=1;" edge="1" parent="1">
          <mxGeometry relative="1" as="geometry">
            <mxPoint x="270" y="558" as="sourcePoint" />
            <mxPoint x="270" y="490" as="targetPoint" />
            <Array as="points">
              <mxPoint x="270" y="558" />
            </Array>
          </mxGeometry>
        </mxCell>
        <mxCell id="yLS3L7dr6BHDWashYxUx-65" style="edgeStyle=orthogonalEdgeStyle;rounded=0;orthogonalLoop=1;jettySize=auto;html=1;entryX=-0.005;entryY=0.364;entryDx=0;entryDy=0;entryPerimeter=0;" edge="1" parent="1" source="yLS3L7dr6BHDWashYxUx-53" target="yLS3L7dr6BHDWashYxUx-54">
          <mxGeometry relative="1" as="geometry" />
        </mxCell>
        <mxCell id="yLS3L7dr6BHDWashYxUx-66" value="+" style="text;html=1;align=center;verticalAlign=middle;resizable=0;points=[];autosize=1;strokeColor=none;fillColor=none;" vertex="1" parent="1">
          <mxGeometry x="400" y="550" width="30" height="30" as="geometry" />
        </mxCell>
        <mxCell id="yLS3L7dr6BHDWashYxUx-67" style="edgeStyle=orthogonalEdgeStyle;rounded=0;orthogonalLoop=1;jettySize=auto;html=1;entryX=0.486;entryY=1.014;entryDx=0;entryDy=0;entryPerimeter=0;curved=1;" edge="1" parent="1" target="yLS3L7dr6BHDWashYxUx-54">
          <mxGeometry relative="1" as="geometry">
            <mxPoint x="673" y="600" as="sourcePoint" />
            <Array as="points">
              <mxPoint x="673" y="608" />
              <mxPoint x="673" y="650" />
              <mxPoint x="498" y="650" />
            </Array>
          </mxGeometry>
        </mxCell>
        <mxCell id="yLS3L7dr6BHDWashYxUx-68" value="&lt;font style=&quot;font-size: 22px;&quot;&gt;-&lt;/font&gt;" style="text;html=1;align=center;verticalAlign=middle;resizable=0;points=[];autosize=1;strokeColor=none;fillColor=none;" vertex="1" parent="1">
          <mxGeometry x="470" y="595" width="30" height="40" as="geometry" />
        </mxCell>
        <mxCell id="yLS3L7dr6BHDWashYxUx-71" style="edgeStyle=orthogonalEdgeStyle;rounded=0;orthogonalLoop=1;jettySize=auto;html=1;entryX=0.752;entryY=0.998;entryDx=0;entryDy=0;entryPerimeter=0;curved=1;" edge="1" parent="1" source="yLS3L7dr6BHDWashYxUx-54" target="yLS3L7dr6BHDWashYxUx-19">
          <mxGeometry relative="1" as="geometry">
            <Array as="points">
              <mxPoint x="500" y="540" />
              <mxPoint x="285" y="540" />
            </Array>
          </mxGeometry>
        </mxCell>
        <mxCell id="yLS3L7dr6BHDWashYxUx-73" value="&lt;font style=&quot;font-size: 22px;&quot;&gt;-&lt;/font&gt;" style="text;html=1;align=center;verticalAlign=middle;resizable=0;points=[];autosize=1;strokeColor=none;fillColor=none;" vertex="1" parent="1">
          <mxGeometry x="290" y="483" width="30" height="40" as="geometry" />
        </mxCell>
        <mxCell id="yLS3L7dr6BHDWashYxUx-76" value="+" style="text;html=1;align=center;verticalAlign=middle;resizable=0;points=[];autosize=1;strokeColor=none;fillColor=none;" vertex="1" parent="1">
          <mxGeometry x="670" y="535" width="30" height="30" as="geometry" />
        </mxCell>
      </root>
    </mxGraphModel>
  </diagram>
</mxfile>
